<svg width="131" height="32" viewBox="0 0 131 32" fill="none" xmlns="http://www.w3.org/2000/svg">
<path d="M119.544 23.5488C120.429 23.5488 121.263 23.4772 122.044 23.334C122.825 23.1777 123.541 22.9824 124.193 22.748C124.857 22.5137 125.456 22.2467 125.989 21.9473C126.523 21.6478 126.992 21.3483 127.396 21.0488H130.657V31.0488H104.544V22.5723L107.044 22.084V10.0527L104.544 9.56445V1.04883H130.657V11.0488H127.513C127.096 10.7624 126.614 10.4694 126.068 10.1699C125.521 9.87044 124.909 9.60352 124.232 9.36914C123.568 9.12175 122.845 8.92643 122.064 8.7832C121.282 8.62695 120.443 8.54883 119.544 8.54883V13.8809L125.403 12.6113V19.5254L119.544 18.2559V23.5488Z" fill="black"/>
<path d="M90.5294 23.5488C91.4148 23.5488 92.2481 23.4772 93.0294 23.334C93.8106 23.1777 94.5268 22.9824 95.1778 22.748C95.8419 22.5137 96.4408 22.2467 96.9747 21.9473C97.5085 21.6478 97.9773 21.3483 98.3809 21.0488H101.643V31.0488H75.5294V22.5723L78.0294 22.084V10.0527L75.5294 9.56445V1.04883H101.643V11.0488H98.4981C98.0814 10.7624 97.5997 10.4694 97.0528 10.1699C96.5059 9.87044 95.8939 9.60352 95.2169 9.36914C94.5528 9.12175 93.8301 8.92643 93.0489 8.7832C92.2676 8.62695 91.4278 8.54883 90.5294 8.54883V13.8809L96.3887 12.6113V19.5254L90.5294 18.2559V23.5488Z" fill="black"/>
<path d="M60.4209 1.04883C62.309 1.45247 64.0082 2.03841 65.5186 2.80664C67.029 3.56185 68.3116 4.5319 69.3662 5.7168C70.4339 6.90169 71.2478 8.32096 71.8076 9.97461C72.3806 11.6152 72.667 13.5228 72.667 15.6973C72.667 18.5749 72.1853 20.9967 71.2217 22.9629C70.2582 24.916 68.8975 26.4915 67.1397 27.6895C65.3949 28.8874 63.292 29.7467 60.8311 30.2676C58.3701 30.7884 55.6488 31.0488 52.667 31.0488H37.667V22.5723L40.167 22.084V9.29102L37.667 8.80273V1.04883H60.4209ZM54.5811 22.084C55.9743 22.084 57.0485 21.9342 57.8037 21.6348C58.559 21.3223 59.1058 20.8861 59.4444 20.3262C59.7959 19.7663 59.9978 19.0957 60.0498 18.3145C60.1149 17.5332 60.1475 16.6608 60.1475 15.6973C60.1475 14.7337 60.1149 13.8613 60.0498 13.0801C59.9978 12.2858 59.7959 11.6087 59.4444 11.0488C59.1058 10.4889 58.559 10.0592 57.8037 9.75977C57.0485 9.44727 55.9743 9.29102 54.5811 9.29102H52.667V22.084H54.5811Z" fill="black"/>
<path d="M17.4805 31.4004C15.8919 31.4004 14.3555 31.3027 12.8711 31.1074C11.3997 30.9121 10.013 30.5475 8.71094 30.0137C7.42188 29.4798 6.24349 28.7962 5.17578 27.9629C4.10807 27.1165 3.1901 26.1074 2.42188 24.9355C1.65365 23.7507 1.05469 22.3965 0.625 20.873C0.208333 19.3366 0 17.6113 0 15.6973C0 13.9004 0.208333 12.2793 0.625 10.834C1.04167 9.38867 1.6276 8.10612 2.38281 6.98633C3.13802 5.86654 4.04297 4.90299 5.09766 4.0957C6.16536 3.28841 7.34375 2.63086 8.63281 2.12305C9.9349 1.60221 11.3281 1.2181 12.8125 0.970703C14.3099 0.723307 15.8659 0.599609 17.4805 0.599609C19.0951 0.599609 20.651 0.723307 22.1484 0.970703C23.6458 1.2181 25.0456 1.60221 26.3477 2.12305C27.6497 2.64388 28.8281 3.30794 29.8828 4.11523C30.9505 4.92253 31.862 5.88607 32.6172 7.00586C33.3724 8.12565 33.9583 9.4082 34.375 10.8535C34.7917 12.2858 35 13.9004 35 15.6973C35 18.5098 34.5378 20.9251 33.6133 22.9434C32.7018 24.9486 31.4518 26.5892 29.8633 27.8652C28.2747 29.1413 26.4193 30.0527 24.2969 30.5996C22.1745 31.1335 19.9023 31.4004 17.4805 31.4004ZM17.4805 9.52539C16.6471 9.52539 15.944 9.63607 15.3711 9.85742C14.8112 10.0658 14.3424 10.3457 13.9648 10.6973C13.6003 11.0488 13.3203 11.446 13.125 11.8887C12.9297 12.3314 12.7799 12.7806 12.6758 13.2363C12.5846 13.6921 12.5326 14.1348 12.5195 14.5645C12.5065 14.9941 12.5 15.3717 12.5 15.6973C12.5 16.0228 12.5065 16.4004 12.5195 16.8301C12.5326 17.2598 12.5846 17.709 12.6758 18.1777C12.7799 18.6335 12.9297 19.0892 13.125 19.5449C13.3203 20.0007 13.6003 20.4108 13.9648 20.7754C14.3424 21.127 14.8112 21.4134 15.3711 21.6348C15.944 21.8561 16.6471 21.9668 17.4805 21.9668C18.3138 21.9668 19.0104 21.8561 19.5703 21.6348C20.1432 21.4134 20.6185 21.127 20.9961 20.7754C21.3737 20.4108 21.6602 20.0007 21.8555 19.5449C22.0638 19.0892 22.2135 18.6335 22.3047 18.1777C22.3958 17.709 22.4479 17.2598 22.4609 16.8301C22.487 16.4004 22.5 16.0228 22.5 15.6973C22.5 15.3717 22.487 14.9941 22.4609 14.5645C22.4479 14.1348 22.3958 13.6921 22.3047 13.2363C22.2135 12.7806 22.0638 12.3314 21.8555 11.8887C21.6602 11.446 21.3737 11.0488 20.9961 10.6973C20.6185 10.3457 20.1432 10.0658 19.5703 9.85742C19.0104 9.63607 18.3138 9.52539 17.4805 9.52539Z" fill="black"/>
</svg>
